HIERARCHY
ROOT Hips
{
  OFFSET 265.287 66.7526 -254.649
  CHANNELS 6 Xposition Yposition Zposition Zrotation Xrotation Yrotation
  JOINT LeftUpLeg
  {
    OFFSET 8.64259 1.95398 -2.38835
    CHANNELS 3 Zrotation Xrotation Yrotation
    JOINT LeftLeg
    {
      OFFSET 43.7702 0 0
      CHANNELS 3 Zrotation Xrotation Yrotation
      JOINT LeftFoot
      {
        OFFSET 40.6238 0 0
        CHANNELS 3 Zrotation Xrotation Yrotation
        JOINT LeftToeBase
        {
          OFFSET 12.7242 0 0
          CHANNELS 3 Zrotation Xrotation Yrotation
          End Site
          {
            OFFSET 0 0 0
          }
        }
      }
    }
  }
  JOINT RightUpLeg
  {
    OFFSET -8.2249 1.95398 -2.59336
    CHANNELS 3 Zrotation Xrotation Yrotation
    JOINT RightLeg
    {
      OFFSET 43.5653 0 0
      CHANNELS 3 Zrotation Xrotation Yrotation
      JOINT RightFoot
      {
        OFFSET 40.6238 0 0
        CHANNELS 3 Zrotation Xrotation Yrotation
        JOINT RightToeBase
        {
          OFFSET 12.7242 0 0
          CHANNELS 3 Zrotation Xrotation Yrotation
          End Site
          {
            OFFSET 0 0 0
          }
        }
      }
    }
  }
  JOINT Spine
  {
    OFFSET 0.165834 0.87714 6.61349
    CHANNELS 3 Zrotation Xrotation Yrotation
    JOINT Spine1
    {
      OFFSET 7.38963 1.71661e-005 0
      CHANNELS 3 Zrotation Xrotation Yrotation
      JOINT Spine2
      {
        OFFSET 11.9445 1.14441e-005 0
        CHANNELS 3 Zrotation Xrotation Yrotation
        JOINT Spine3
        {
          OFFSET 14.7254 4.19617e-005 0
          CHANNELS 3 Zrotation Xrotation Yrotation
          JOINT Spine4
          {
            OFFSET 10.9679 0 0
            CHANNELS 3 Zrotation Xrotation Yrotation
            JOINT RightShoulder
            {
              OFFSET 2.46616 -1.6653 3.69651
              CHANNELS 3 Zrotation Xrotation Yrotation
              JOINT RightArm
              {
                OFFSET 13.0012 0 0
                CHANNELS 3 Zrotation Xrotation Yrotation
                JOINT RightForeArm
                {
                  OFFSET 28.7848 1.52588e-005 0
                  CHANNELS 3 Zrotation Xrotation Yrotation
                  JOINT RightHand
                  {
                    OFFSET 26.5688 1.52588e-005 0
                    CHANNELS 3 Zrotation Xrotation Yrotation
                    End Site
                    {
                      OFFSET 0 0 0
                    }
                  }
                }
              }
            }
            JOINT LeftShoulder
            {
              OFFSET 2.38034 -1.29275 -3.7523
              CHANNELS 3 Zrotation Xrotation Yrotation
              JOINT LeftArm
              {
                OFFSET 16.3182 6.10351e-005 0
                CHANNELS 3 Zrotation Xrotation Yrotation
                JOINT LeftForeArm
                {
                  OFFSET 27.0901 0 0
                  CHANNELS 3 Zrotation Xrotation Yrotation
                  JOINT LeftHand
                  {
                    OFFSET 24.5451 1.52588e-005 0
                    CHANNELS 3 Zrotation Xrotation Yrotation
                    End Site
                    {
                      OFFSET 0 0 0
                    }
                  }
                }
              }
            }
            JOINT Neck
            {
              OFFSET 5.0226 -0.0266342 0
              CHANNELS 3 Zrotation Xrotation Yrotation
              JOINT Head
              {
                OFFSET 6.69364 2.86102e-005 0
                CHANNELS 3 Zrotation Xrotation Yrotation
                End Site
                {
                  OFFSET 0 0 0
                }
              }
            }
          }
        }
      }
    }
  }
}
MOTION
Frames:	14
Frame Time:	0.0416667
8.08398 89.104 1.93126 98.8323 -30.7848 93.6688 -175.938 -9.43388 86.3863 -37.2408 14.184 3.48765 87.1705 14.4254 8.44923 38.3372 -3.03021 2.82132 176.44 29.6845 82.8803 -8.47099 -9.2784 0.483168 34.1545 11.1712 24.8372 40.107 -1.5201 -8.57479 -1.32505 9.16047 -89.9528 8.55194 -2.623 0.250448 -3.11642 -2.60941 0.365717 -25.672 -2.57691 -0.549992 -5.65932 -2.5769 -0.549991 102.822 -49.268 -81.1324 25.9549 -1.48741 10.1217 4.0031 -10.4305 -3.13587 -16.8439 -1.28364 3.7469 -85.1322 -45.1353 85.1504 -19.3471 17.4295 -14.5986 22.2828 -3.44943 -70.1658 6.37545 -0.332956 -7.53388 27.541 -3.51895 -5.28652 -12.0775 -1.6513 3.82681 
17.5147 88.3644 10.421 92.4762 -26.4357 91.2579 -177.138 -9.17516 89.9798 -39.937 13.1723 6.68396 78.4172 7.1031 -2.20812 48.2775 -5.61988 5.46668 174.465 31.3589 83.2912 -8.20949 -8.56508 1.65186 29.7244 12.6543 22.2869 46.0411 -2.81963 -8.30704 -1.57982 8.53816 -90.6698 9.78297 -3.45245 -1.05423 -1.8837 -3.49551 -0.901098 -24.4445 -2.97594 -2.04378 -4.43181 -2.97594 -2.04378 102.047 -49.1138 -82.3521 26.5023 -5.21603 6.158 3.83862 -3.25712 -9.76954 -14.0654 -0.740106 0.949682 -85.2713 -46.086 85.0659 -23.9389 16.1751 -14.8316 17.7313 8.99266 -45.5034 7.9379 -0.175311 -5.30962 30.6987 -2.14551 -0.589549 -14.4202 -2.13151 3.30808 
27.3858 88.4286 19.6544 91.3101 -25.0466 91.6709 -179.003 -5.3418 93.5395 -50.583 10.9503 6.73234 54.1453 -1.04817 -8.32461 52.7209 -7.70567 -3.13313 173.436 36.2224 85.958 -35.3767 -12.8186 3.02365 59.5854 2.15863 7.27997 20.1963 1.58381 -1.13358 -1.33626 8.31513 -91.3095 10.2033 -3.25996 -2.32433 -1.46547 -3.35909 -2.17857 -24.0033 -2.41109 -3.19638 -3.99065 -2.41113 -3.1964 101.516 -48.2881 -83.1988 24.4433 -9.48598 1.36024 4.55326 -1.90208 -17.3919 -18.051 -0.671609 -0.907382 -85.5794 -47.5407 84.7935 -26.1044 13.8394 -12.5995 10.4753 17.51 -23.8215 6.5666 -0.137271 -4.96399 34.1441 -0.896422 2.45074 -17.9987 -2.27624 2.59212 
36.5133 87.5779 27.7363 93.9547 -29.9536 93.3746 177.2 3.27679 89.0175 -74.9451 7.55445 4.23902 53.8721 0.100796 1.56994 51.1596 -6.61602 2.63814 174.007 34.7936 89.9471 -51.4675 -17.0635 1.67703 66.9847 -3.40958 0.998155 29.6193 -0.171351 0.659404 -0.538766 8.62824 -91.5312 9.58686 -1.76474 -2.90279 -2.08591 -1.89073 -2.8224 -24.5979 -0.811259 -3.29854 -4.5852 -0.811262 -3.29854 100.348 -46.0541 -85.1439 23.1374 -8.84463 -9.15357 0.923108 -8.78538 -22.6609 -19.9874 -0.723571 -1.02027 -85.5103 -48.5415 85.0414 -23.2076 9.95764 -6.80435 6.51043 17.3602 -14.7402 2.73517 -0.119391 -5.01915 32.7888 -0.137778 4.63566 -15.7094 -2.21017 0.828241 
44.4476 88.0644 35.465 94.1202 -30.6813 93.3288 174.294 20.7435 90.3406 -94.9275 5.24088 2.08089 57.0442 1.85451 0.48971 46.8969 -5.53113 0.925073 173.549 28.1347 91.4959 -54.6079 -19.505 1.9674 72.7702 -8.94888 -6.35149 35.8993 -1.21947 3.80081 0.00628965 8.51545 -91.6551 9.8171 -0.737205 -3.22398 -1.85757 -0.878304 -3.18848 -24.3604 0.265208 -3.29647 -4.34772 0.265217 -3.29647 98.9646 -42.7693 -87.6405 22.4476 -6.66476 -17.1753 -4.46427 -13.4258 -30 -18.8385 -0.603353 -1.51869 -84.4976 -48.7068 86.6199 -18.7532 6.63534 -0.95911 6.42007 15.2911 -14.1677 2.83524 -0.0766439 -4.0959 29.4732 -1.2304 7.90455 -15.8395 -4.34049 0.0343301 
52.4099 92.77 43.4554 94.8611 -29.2664 88.8774 177.097 35.4194 83.8255 -98.9098 6.47706 1.21285 58.4914 2.38275 2.70721 44.8506 -4.94075 0.367156 175.172 14.407 88.3796 -44.5883 -19.2372 -0.708602 72.848 -7.41663 -3.87902 37.0874 -1.11547 -2.12621 0.305037 8.38511 -90.9676 10.1011 0.167106 -1.93478 -1.57131 0.0817513 -1.94026 -24.0963 0.740763 -1.7952 -4.0836 0.740728 -1.79521 99.2773 -40.6542 -87.2443 21.5244 -8.45837 -20.1051 -5.0967 -9.08609 -37.8179 -18.5846 -0.271414 -3.547 -83.8602 -45.7377 87.2594 -15.4129 4.43276 3.8984 6.63898 10.586 -16.5093 4.31644 -0.140885 -5.23161 26.4763 -4.59975 7.69759 -16.5977 -6.93263 -3.0061 
60.673 99.5706 50.632 95.9007 -29.9627 85.8239 -178.337 41.9939 76.6968 -90.4219 6.07002 0.621704 57.8983 1.12845 -0.298629 45.2894 -5.06019 0.695194 175.312 4.35822 85.585 -32.8333 -16.3375 -2.91981 51.9674 6.85037 11.6928 41.0281 -1.66205 -5.25695 0.692865 8.20126 -90.3755 10.4718 1.20805 -0.850852 -1.1989 1.16942 -0.903196 -23.7373 1.40788 -0.448411 -3.7247 1.40789 -0.448418 100.172 -39.1157 -85.745 21.3477 -11.553 -18.9756 -7.71861 -8.05254 -46.1843 -15.5786 -0.148181 -4.14603 -83.4469 -43.7533 87.6912 -12.0451 3.95409 6.88596 5.32815 6.12271 -16.9985 5.53335 -0.143802 -5.14198 19.9964 -7.46528 7.04441 -16.3255 -8.71276 -6.35281 
68.3573 104.757 57.3464 96.6378 -33.6795 87.0927 -176.873 42.1203 75.8842 -79.6178 3.55645 -0.00845596 55.097 -0.521849 -3.52791 45.2466 -5.08406 -0.311599 175.717 2.56462 85.8984 -27.264 -16.2999 -2.45705 41.9852 10.0911 20.5945 33.7313 -0.234353 -5.82712 1.06802 8.18354 -90.4792 10.5165 1.90738 -1.12227 -1.15363 1.85613 -1.20515 -23.6991 2.15644 -0.496942 -3.68647 2.15646 -0.496937 99.9043 -37.5172 -86.3182 20.2299 -14.6521 -17.1312 -11.6216 -5.85218 -57.432 -12.9236 -0.031209 -5.16025 -82.3536 -43.1383 89.4231 -11.5311 2.62244 10.2802 4.61124 2.53378 -17.5553 7.16199 -0.133859 -4.89141 17.6637 -7.29634 7.95341 -15.9566 -8.61749 -7.37919 
75.9768 107.52 64.3436 96.8691 -36.1229 87.2641 -177.077 37.6695 75.7102 -66.6951 0.86141 -0.690131 56.396 -0.448953 -7.11319 41.6745 -3.99242 -1.19047 175.014 4.1931 85.9237 -21.112 -9.06162 -1.09656 48.8979 8.39916 19.4563 39.7232 -1.51422 -3.89858 1.18372 8.21444 -90.4105 10.4553 2.16971 -1.00728 -1.21432 2.12327 -1.10182 -23.7635 2.37208 -0.308301 -3.75086 2.37208 -0.308307 99.6282 -37.4519 -86.8286 19.3556 -17.6272 -16.3019 -11.9096 -1.87717 -67.0396 -13.4299 0.0627243 -5.90543 -82.3504 -40.9192 89.211 -12.5176 1.51899 14.2123 4.19452 -0.101971 -18.3345 9.46021 -0.136633 -4.81033 18.2936 -6.6464 8.04674 -16.9992 -7.84697 -8.53871 
83.565 106.734 71.3197 95.3477 -40.0841 86.832 -176.369 34.5848 76.6144 -52.5914 4.93088 -1.6849 56.5906 -0.69167 -5.04652 41.8217 -4.04557 -1.91957 175.449 6.17441 86.6984 -13.0953 -4.36085 -0.267366 44.8216 10.3874 19.4914 44.6007 -2.47592 -7.24951 1.36454 8.09419 -90.3694 10.6978 2.54731 -0.967545 -0.971102 2.50228 -1.07879 -23.5261 2.72025 -0.156711 -3.51345 2.72024 -0.156722 99.595 -38.3869 -86.8283 17.2238 -21.8112 -18.4476 -12.089 0.822744 -73.5106 -15.1432 0.0694427 -5.85064 -82.0259 -41.7363 89.8357 -10.6223 0.746013 17.5884 3.91822 -1.82007 -20.2267 11.6941 -0.0984087 -4.43377 18.7432 -5.64549 9.3562 -17.3519 -7.16778 -9.44721 
91.3672 102.002 78.2612 98.2175 -41.4832 89.3985 -179.283 31.4887 77.2769 -40.3613 6.20645 -0.573816 58.7154 -0.147236 -3.67278 40.8869 -3.74232 -3.14423 174.598 4.35204 87.7954 -15.1797 -7.40368 0.987127 42.2941 10.3366 17.4555 47.1484 -3.03854 -5.46402 1.38923 8.24756 -90.4568 10.3924 2.55831 -1.13131 -1.27659 2.50605 -1.24286 -23.8314 2.77996 -0.309604 -3.81878 2.77996 -0.309606 99.514 -38.1712 -86.9908 17.9014 -23.1673 -20.11 -17.723 1.14739 -77.1766 -11.4344 -0.104266 -4.15621 -82.3339 -41.9717 89.3426 -9.84121 0.515774 18.37 3.67323 -2.6909 -21.1491 13.1196 0.145828 -2.61141 17.0178 -5.49185 10.814 -16.6337 -7.31243 -9.94548 
98.9491 95.6183 85.497 102.108 -41.0028 93.2603 176.025 28.1212 78.8572 -25.4701 8.5406 1.99589 58.8647 0.204301 -4.07788 38.5578 -2.97355 -2.50058 173.692 1.05832 88.9737 -34.8689 -12.4525 1.89984 63.3487 -1.59691 -1.55748 41.8004 -1.87223 0.942552 1.24013 8.53766 -90.6208 9.81141 2.19066 -1.41004 -1.85859 2.12648 -1.5051 -24.4065 2.51309 -0.686188 -4.39383 2.51309 -0.686192 99.0708 -37.7953 -87.8266 17.9749 -26.1102 -23.0862 -15.213 2.12752 -77.7676 -14.1845 0.13567 -6.51207 -81.9302 -43.5785 90.1549 -7.91644 0.633555 15.8089 4.43737 -1.03883 -21.3554 12.3914 -0.09104 -4.36636 16.3867 -5.12183 11.1253 -14.8062 -7.23334 -8.92985 
107.083 90.6333 93.4734 101.289 -38.8564 96.3244 175.022 27.4566 81.5609 -14.47 13.2814 3.42485 57.5292 -0.218023 -4.28843 36.6326 -2.36999 -1.57013 175.336 -5.2123 97.4041 -36.9616 -7.66496 2.42087 78.8735 -12.692 -5.76829 41.6761 -1.85896 -2.93331 1.05601 8.4631 -91.02 9.95872 1.64138 -2.14961 -1.71307 1.54519 -2.21974 -24.2482 2.21145 -1.55702 -4.23556 2.21145 -1.55703 98.4115 -38.9902 -88.9179 17.9772 -27.7684 -24.3039 -14.0203 -0.065325 -71.8665 -14.6875 -0.0173521 -5.15986 -81.9324 -46.4622 90.3914 -9.03224 -1.88542 10.5448 4.47838 -2.64649 -20.6969 10.4427 -0.0424543 -3.9423 16.7839 -4.94371 10.8515 -13.5306 -7.18077 -8.26008 
115.75 88.5958 102.766 95.2368 -43.4352 92.1434 178.172 32.0082 82.9105 -13.5547 11.3088 2.37514 59.5433 0.290145 -0.986452 32.6631 -1.00786 -2.54034 176.593 -10.3517 96.3619 -34.8949 -9.66409 0.32892 77.1031 -10.3941 -2.86548 50.6054 -3.3798 -2.90287 1.34018 7.85473 -90.5505 11.1792 2.41158 -1.3318 -0.490273 2.35067 -1.43668 -23.042 2.70029 -0.545039 -3.0294 2.7003 -0.545035 98.3427 -40.8817 -88.8671 20.8579 -29.1304 -23.6162 -14.0319 -8.21109 -56.3789 -7.84008 0.0658061 -6.56915 -81.5601 -48.8527 91.149 -12.9862 -2.64491 6.05678 3.48301 -5.39604 -23.3536 9.06502 -0.00689508 -3.53481 18.8601 -4.91502 7.83008 -16.6494 -6.23937 -7.88978 
